# AST/ASF file generated using VICON BodyLanguage
# -----------------------------------------------
:version 1.10
:name VICON
:units
  mass 1.0
  length 0.45
  angle deg
:documentation
   .ast/.asf automatically generated from VICON data using
   VICON BodyBuilder and BodyLanguage model FoxedUp or BRILLIANT.MOD
:root
   order TX TY TZ RX RY RZ
   axis XYZ
   position 0 0 0  
   orientation 0 0 0 
:bonedata
  begin
     id 1 
     name lhipjoint
     direction 0.584852 -0.759097 0.285867 
     length 2.43633 
     axis 0 0 0  XYZ
  end
  begin
     id 2 
     name lfemur
     direction 0.34202 -0.939693 0  
     length 7.14704  
     axis 0 0 20  XYZ
    dof rx ry rz
    limits (-160.0 20.0)
           (-70.0 70.0)
           (-60.0 70.0)
  end
  begin
     id 3 
     name ltibia
     direction 0.342022 -0.939692 0   
     length 7.68483   
     axis 0 0 20   XYZ
    dof rx
    limits (-10.0 170.0)
  end
  begin
     id 4 
     name lfoot
     direction 0.0999605 -0.274639 0.956337   
     length 2.40452   
     axis -90 7.62852e-016 20   XYZ
    dof rx rz
    limits (-45.0 90.0)
           (-70.0 20.0)
  end
  begin
     id 5 
     name ltoes
     direction 1.53468e-011 -4.21881e-011 1   
     length 1.19837   
     axis -90 7.62852e-016 20   XYZ
    dof rx
    limits (-90.0 20.0)
  end
  begin
     id 6 
     name rhipjoint
     direction -0.569886 -0.769002 0.289597   
     length 2.40495  
     axis 0 0 0  XYZ 
  end
  begin
     id 7 
     name rfemur
     direction -0.34202 -0.939693 0   
     length 7.45086   
     axis 0 0 -20   XYZ
    dof rx ry rz
    limits (-160.0 20.0)
           (-70.0 70.0)
           (-70.0 60.0)
  end
  begin
     id 8 
     name rtibia
     direction -0.34202 -0.939693 0   
     length 7.76831   
     axis 0 0 -20   XYZ
    dof rx
    limits (-10.0 170.0)
 end
 begin
     id 9 
     name rfoot
     direction -0.0798572 -0.219406 0.97236   
     length 2.35911  
     axis -90 -7.62852e-016 -20   XYZ
    dof rx rz
    limits (-45.0 90.0)
           (-20.0 70.0)
  end
  begin
     id 10 
     name rtoes
     direction -1.53469e-011 -4.21728e-011 1   
     length 1.18261   
     axis -90 -7.62852e-016 -20   XYZ
    dof rx
    limits (-90.0 20.0)
  end
  begin
     id 11 
     name lowerback
     direction 0.0242088 0.999437 0.0232389   
     length 2.1561   
     axis 0 0 0   XYZ
    dof rx ry rz
    limits (-20.0 45.0)
           (-30.0 30.0)
           (-30.0 30.0)
  end
  begin
     id 12 
     name upperback
     direction -0.0356893 0.999013 -0.0264323   
     length 2.14431   
     axis 0 0 0   XYZ
    dof rx ry rz
    limits (-20.0 45.0)
           (-30.0 30.0)
           (-30.0 30.0)
  end
  begin
     id 13 
     name thorax
     direction -0.0472163 0.998194 -0.0371284   
     length 2.16169   
     axis 0 0 0   XYZ
    dof rx ry rz
    limits (-20.0 45.0)
           (-30.0 30.0)
           (-30.0 30.0)
  end
  begin
     id 14 
     name lowerneck
     direction 0.00863244 0.999921 0.00911972   
     length 1.58651   
     axis 0 0 0   XYZ
    dof rx ry rz
    limits (-20.0 45.0)
           (-30.0 30.0)
           (-30.0 30.0)
  end
  begin
     id 15 
     name upperneck
     direction 0.149523 0.979068 -0.138086   
     length 1.57486   
     axis 0 0 0   XYZ
    dof rx ry rz
    limits (-20.0 45.0)
           (-30.0 30.0)
           (-30.0 30.0)
  end
  begin
     id 16
     name head
     direction 0.0445219 0.997708 -0.0509576  
     length 1.6019  
     axis 0 0 0   XYZ
    dof rx ry rz
    limits (-20.0 45.0)
           (-30.0 30.0)
           (-30.0 30.0)
  end
  begin
     id 17 
     name lclavicle
     direction 0.911271 0.381667 -0.154644  
     length 3.80848  
     axis 0 0 0   XYZ
    dof ry rz
    limits (-20.0 10.0)
           (0.0 20.0)
  end
  begin
     id 18 
     name lhumerus
     direction 1 -4.49003e-011 2.1308e-027   
     length 5.19069   
     axis 180 -30 -90   XYZ
    dof rx ry rz
    limits (-60.0 90.0)
           (-90.0 90.0)
           (-90.0 90.0)
  end
  begin
     id 19
     name lradius
     direction 1 -4.48914e-011 4.01554e-027   
     length 3.30016   
     axis 180 -30 -90   XYZ
    dof rx
    limits (-10.0 170.0)
  end
  begin
     id 20
     name lwrist
     direction 1 -4.49003e-011 1.1934e-026   
     length 1.65008   
     axis -8.46377e-015 90 90   XYZ
    dof ry
    limits (-180.0 0.0)
 end
  begin
     id 21 
     name lhand
     direction 1 -4.49034e-011 2.38659e-026   
     length 0.707698   
     axis -1.52313e-014 90 90   XYZ
    dof rx rz
    limits (-90.0 90.0)
           (-45.0 45.0)
  end
  begin
     id 22 
     name lfingers
     direction 1 -4.48691e-011 4.77775e-026   
     length 0.570564   
     axis -3.04623e-014 90 90   XYZ
    dof rx
    limits (0.0 90.0)
  end
  begin
     id 23
     name lthumb
     direction 0.707107 -6.34832e-011 0.707107   
     length 0.819219   
     axis -90 45 -1.62303e-014   XYZ
    dof rx rz
    limits (-45.0 45.0)
           (-45.0 45.0)
  end
  begin
     id 24 
     name rclavicle
     direction -0.815579 0.573708 -0.0754329   
     length 3.54371  
     axis 0 0 0   XYZ 
    dof ry rz
    limits (-10.0 20.0)
           (-20.0 0.0)
  end
  begin
     id 25 
     name rhumerus
     direction -1 -4.48956e-011 3.05351e-028  
     length 5.23924   
     axis 180 30 90   XYZ
    dof rx ry rz
    limits (-90.0 60.0)
           (-90.0 90.0)
           (-90.0 90.0)
  end
  begin
     id 26 
     name rradius
     direction -1 -4.49013e-011 3.53849e-027   
     length 3.32953   
     axis 180 30 90   XYZ
    dof rx
    limits (-10.0 170.0)
  end
  begin
     id 27 
     name rwrist
     direction -1 -4.48901e-011 1.19374e-026   
     length 1.66477   
     axis -8.46377e-015 -90 -90   XYZ
    dof ry
    limits (-180.0 0.0)
  end
  begin
     id 28
     name rhand
     direction -1 -4.48877e-011 2.38764e-026   
     length 0.607414   
     axis -1.52313e-014 -90 -90   XYZ
    dof rx rz
    limits (-90.0 90.0)
           (-45.0 45.0)
  end
  begin
     id 29
     name rfingers
     direction -1 -4.48882e-011 4.77521e-026   
     length 0.489712   
     axis -3.04623e-014 -90 -90   XYZ
    dof rx
    limits (0.0 90.0)
  end
  begin
     id 30
     name rthumb
     direction -0.707107 -6.34974e-011 0.707107   
     length 0.703132   
     axis -90 -45 1.62303e-014   XYZ
    dof rx rz
    limits (-45.0 45.0)
           (-45.0 45.0)
  end
:hierarchy
  begin
    root lhipjoint rhipjoint lowerback
    lhipjoint lfemur
    lfemur ltibia
    ltibia lfoot
    lfoot ltoes
    rhipjoint rfemur
    rfemur rtibia
    rtibia rfoot
    rfoot rtoes
    lowerback upperback
    upperback thorax
    thorax lowerneck lclavicle rclavicle
    lowerneck upperneck
    upperneck head
    lclavicle lhumerus
    lhumerus lradius
    lradius lwrist
    lwrist lhand lthumb
    lhand lfingers
    rclavicle rhumerus
    rhumerus rradius
    rradius rwrist
    rwrist rhand rthumb
    rhand rfingers
  end

#!OML:ASF E:\VariousWalksJay\Project 1\Capture day 1\Session 1\Actor2.ASF
:FULLY-SPECIFIED
:DEGREES
402
root 15.3724 11.86 4.98881 36.5644 -62.6643 3.67667
lowerback 44.3018 -1.89102 -2.41513
upperback 13.904 -5.50058 -9.53353
thorax -5.97169 -2.61737 -6.69626
lowerneck -3.40955 6.47009 -0.663614
upperneck -29.1596 7.92834 -5.04309
head -8.32518 4.21142 -2.0355
rclavicle 1.74931e-014 3.8266e-014
rhumerus 60.3527 12.9857 -45.0206
rradius 22.1365
rwrist 3.50531
rhand -9.92204 -4.22604
rfingers 7.12502
rthumb 16.0587 -33.5806
lclavicle 1.74931e-014 3.8266e-014
lhumerus 58.3274 -0.715224 77.3792
lradius 22.5315
lwrist -5.47875
lhand -48.3014 -53.9422
lfingers 7.12502
lthumb -20.958 -25.0545
rfemur -98.0755 -34.2181 7.25019
rtibia 87.6027
rfoot -16.1549 -2.10203
rtoes -20.1388
lfemur -102.879 38.2906 -21.1516
ltibia 73.1318
lfoot 3.38857 7.2532
ltoes -27.665
403
root 15.4183 11.9393 5.14748 36.6559 -61.8319 3.60898
lowerback 44.0169 -2.01791 -2.43505
upperback 13.7993 -5.66422 -9.85582
thorax -6.07755 -2.67985 -6.96809
lowerneck -3.00776 6.23229 -0.482376
upperneck -29.4258 7.55632 -5.11798
head -8.48408 4.02373 -2.09653
rclavicle 6.83819e-014 6.72886e-014
rhumerus 58.7526 12.2336 -47.7298
rradius 21.6955
rwrist 3.8409
rhand -6.47605 -3.82342
rfingers 7.12502
rthumb 19.3747 -32.8782
lclavicle 6.83819e-014 6.72886e-014
lhumerus 56.6084 -3.03106 73.7672
lradius 26.0949
lwrist -13.0623
lhand -53.5982 -42.5472
lfingers 7.12502
lthumb -26.0386 -14.3117
rfemur -96.0955 -34.6483 6.27455
rtibia 86.2608
rfoot -15.8523 -2.44481
rtoes -20.0913
lfemur -103.467 37.4142 -21.8294
ltibia 73.5583
lfoot 2.78745 7.05108
ltoes -27.2666
404
root 15.4574 12.0196 5.29675 36.3957 -60.931 3.78427
lowerback 43.6518 -2.09173 -2.52455
upperback 13.7973 -5.77545 -10.1164
thorax -6.02412 -2.72339 -7.16548
lowerneck -2.97056 5.93845 -0.396703
upperneck -29.4035 7.16152 -4.94451
head -8.49543 3.80804 -2.03093
rclavicle 1.59028e-015 8.67198e-014
rhumerus 57.4817 12.2819 -47.0772
rradius 22.4187
rwrist 2.05662
rhand -4.09028 -3.97633
rfingers 7.12502
rthumb 21.6673 -32.7839
lclavicle 1.59028e-015 8.67198e-014
lhumerus 55.7867 -4.54977 72.1965
lradius 28.8143
lwrist -17.3777
lhand -54.5987 -37.1602
lfingers 7.12502
lthumb -26.9963 -9.06928
rfemur -93.9917 -35.2086 5.2825
rtibia 84.9295
rfoot -15.4948 -2.88463
rtoes -20.8137
lfemur -103.785 36.4808 -22.4927
ltibia 73.8106
lfoot 2.28929 6.74645
ltoes -26.9504
405
root 15.4867 12.106 5.44075 35.8403 -59.9146 3.86043
lowerback 43.731 -2.01269 -2.6637
upperback 13.701 -5.73405 -10.1753
thorax -6.14428 -2.69791 -7.17199
lowerneck -2.90978 5.61799 -0.492165
upperneck -29.2425 6.79325 -4.48592
head -8.48141 3.59717 -1.8369
rclavicle 1.43125e-014 1.67973e-014
rhumerus 55.6798 12.9324 -45.3822
rradius 23.8545
rwrist 0.339984
rhand -3.20455 -4.3676
rfingers 7.12502
rthumb 22.5176 -33.0746
lclavicle 1.43125e-014 1.67973e-014
lhumerus 55.7355 -6.14715 71.2804
lradius 29.477
lwrist -14.6924
lhand -52.0036 -42.0494
lfingers 7.12502
lthumb -24.5109 -13.598
rfemur -91.3697 -35.7694 4.17547
rtibia 83.6571
rfoot -15.0796 -3.17546
rtoes -22.3618
lfemur -103.616 35.6431 -22.9328
ltibia 73.9806
lfoot 1.93238 6.27663
ltoes -26.6938
406
root 15.5079 12.1848 5.56594 35.6099 -58.9715 3.62753
lowerback 43.3929 -1.83865 -2.87481
upperback 13.6904 -5.58336 -10.2604
thorax -6.03738 -2.63059 -7.22748
lowerneck -2.88246 5.35316 -0.69105
upperneck -29.1788 6.59292 -3.66894
head -8.51002 3.44271 -1.51641
rclavicle -1.59028e-014 1.9953e-014
rhumerus 53.6983 13.8565 -43.842
rradius 25.5679
rwrist -0.870769
rhand -3.66839 -4.50789
rfingers 7.12502
rthumb 22.0724 -33.2682
lclavicle -1.59028e-014 1.9953e-014
lhumerus 56.4062 -8.06574 69.5059
lradius 28.5203
lwrist -6.21159
lhand -46.8745 -50.2195
lfingers 7.12502
lthumb -19.5866 -21.1861
rfemur -88.9011 -36.116 3.14804
rtibia 82.5429
rfoot -14.7737 -3.09252
rtoes -21.9389
lfemur -103.584 35.1266 -23.4414
ltibia 74.074
lfoot 1.55518 5.60572
ltoes -26.4382
407
root 15.5232 12.2646 5.68419 35.1938 -57.7369 3.30958
lowerback 43.3356 -1.53254 -3.06753
upperback 13.5919 -5.23668 -9.98583
thorax -6.03372 -2.47665 -6.97576
lowerneck -2.64521 5.13448 -0.982136
upperneck -29.2034 6.42523 -2.9832
head -8.60196 3.32798 -1.23554
rclavicle 5.56597e-014 1.53437e-015
rhumerus 51.2822 15.1349 -41.5181
rradius 27.815
rwrist -3.21954
rhand -4.73282 -4.64368
rfingers 7.12502
rthumb 21.0501 -33.5212
lclavicle 5.56597e-014 1.53437e-015
lhumerus 57.3 -10.1619 67.8952
lradius 26.9665
lwrist 3.62831
lhand -40.7735 -55.5522
lfingers 7.12502
lthumb -13.7134 -26.024
rfemur -85.8585 -36.4985 2.01033
rtibia 81.4453
rfoot -14.6776 -2.97725
rtoes -22.8284
lfemur -103.202 34.5215 -23.5834
ltibia 74.1044
lfoot 1.22729 4.8325
ltoes -25.8709
408
root 15.5347 12.3274 5.79586 34.8905 -56.4633 3.01856
lowerback 42.8303 -1.27845 -2.65767
upperback 13.5779 -4.73846 -10.1168
thorax -5.9065 -2.23554 -7.54854
lowerneck -1.92513 4.88876 -0.254992
upperneck -29.5384 6.24564 -2.47162
head -8.84089 3.11026 -1.20397
rclavicle -5.24792e-014 -9.5516e-014
rhumerus 48.0696 15.5739 -41.9229
rradius 29.4689
rwrist -5.32648
rhand -5.50022 -4.8046
rfingers 7.12502
rthumb 20.3127 -33.7624
lclavicle -5.24792e-014 -9.5516e-014
lhumerus 58.4146 -13.1091 65.3906
lradius 25.4554
lwrist 13.0951
lhand -34.856 -58.452
lfingers 7.12502
lthumb -8.00584 -28.6236
rfemur -83.0127 -36.9346 0.959637
rtibia 80.3796
rfoot -14.5121 -2.70559
rtoes -24.1713
lfemur -103.135 34.0028 -23.9509
ltibia 74.1075
lfoot 0.961435 3.83567
ltoes -25.1749
409
root 15.5451 12.3872 5.90959 35.0472 -55.2319 2.45219
lowerback 41.752 -1.00308 -2.42434
upperback 13.5851 -4.19927 -9.96299
thorax -5.52237 -1.99031 -7.74055
lowerneck -1.62855 4.81553 -0.167443
upperneck -29.8036 6.28019 -1.98628
head -9.00468 3.06755 -1.07177
rclavicle -2.70347e-014 2.08227e-014
rhumerus 45.0943 16.1807 -42.1765
rradius 31.588
rwrist -8.32613
rhand -5.55813 -5.26313
rfingers 7.12502
rthumb 20.2571 -34.2268
lclavicle -2.70347e-014 2.08227e-014
lhumerus 59.1592 -15.3924 63.1697
lradius 24.3769
lwrist 20.2977
lhand -30.4564 -60.2965
lfingers 7.12502
lthumb -3.75824 -30.3499
rfemur -80.4662 -37.3237 0.214382
rtibia 79.2485
rfoot -14.2538 -2.32353
rtoes -25.4187
lfemur -103.175 33.4881 -24.0506
ltibia 74.1183
lfoot 0.7488 3.08785
ltoes -24.5897
410
root 15.5438 12.4583 6.00532 35.0876 -54.1406 1.52875
lowerback 41.1928 -0.68156 -2.56057
upperback 13.5363 -3.78591 -9.74734
thorax -5.32527 -1.81 -7.6075
lowerneck -1.62602 4.92792 -0.50388
upperneck -30.002 6.62117 -1.26666
head -9.11787 3.19622 -0.798271
rclavicle 3.65764e-014 2.99171e-014
rhumerus 41.8052 16.7162 -43.6651
rradius 33.92
rwrist -9.87941
rhand -5.08621 -4.79379
rfingers 7.12502
rthumb 20.7106 -33.7087
lclavicle 3.65764e-014 2.99171e-014
lhumerus 59.4256 -17.2803 60.1299
lradius 24.0177
lwrist 24.9238
lhand -29.1213 -60.7981
lfingers 7.12502
lthumb -2.46883 -30.8326
rfemur -77.6073 -37.1555 -0.558684
rtibia 78.1717
rfoot -13.8645 -2.09633
rtoes -26.5369
lfemur -102.667 33.3933 -23.8479
ltibia 74.0708
lfoot 0.47754 2.28467
ltoes -23.9992
411
root 15.5455 12.5199 6.10575 34.7913 -52.9203 1.13384
lowerback 40.5129 -0.623839 -2.47006
upperback 13.4746 -3.59377 -9.61128
thorax -5.15767 -1.72318 -7.58906
lowerneck -1.73804 5.01029 -0.889184
upperneck -30.1037 6.8977 -0.600368
head -9.17856 3.30593 -0.524225
rclavicle -4.6118e-014 -2.42517e-014
rhumerus 38.4988 17.0834 -45.4128
rradius 36.1582
rwrist -10.3968
rhand -3.95827 -4.3869
rfingers 7.12502
rthumb 21.794 -33.1798
lclavicle -4.6118e-014 -2.42517e-014
lhumerus 59.6108 -19.6094 55.9816
lradius 24.5733
lwrist 27.1104
lhand -30.4955 -60.0766
lfingers 7.12502
lthumb -3.79597 -30.1307
rfemur -74.9297 -37.3278 -1.45113
rtibia 77.1761
rfoot -13.2396 -1.79893
rtoes -27.0078
lfemur -102.232 32.9101 -23.8646
ltibia 74.0034
lfoot 0.162332 1.64987
ltoes -23.4472
412
root 15.5341 12.5921 6.19775 34.4783 -51.8919 0.456986
lowerback 40.3585 0.125397 -3.07791
upperback 13.1362 -2.80995 -8.83311
thorax -5.28231 -1.38954 -6.72971
lowerneck -1.88625 4.94199 -1.03119
upperneck -29.9548 6.80798 -0.493505
head -9.10739 3.272 -0.449996
rclavicle -2.06736e-014 -3.96575e-014
rhumerus 34.9958 17.4675 -46.0818
rradius 38.4058
rwrist -10.6631
rhand -2.31696 -4.37324
rfingers 7.12502
rthumb 23.3694 -32.9745
lclavicle -2.06736e-014 -3.96575e-014
lhumerus 59.9013 -22.5422 52.1497
lradius 25.6891
lwrist 25.9918
lhand -34.5484 -58.002
lfingers 7.12502
lthumb -7.70891 -28.1625
rfemur -72.2843 -37.178 -2.16701
rtibia 76.343
rfoot -12.5562 -1.61576
rtoes -26.8416
lfemur -101.45 32.8448 -23.729
ltibia 73.9142
lfoot -0.233156 0.943126
ltoes -22.7967
413
root 15.5072 12.6731 6.28381 34.2287 -51.3222 -0.561709
lowerback 40.1043 0.76191 -3.65247
upperback 12.9095 -2.21572 -8.57025
thorax -5.34253 -1.13507 -6.37506
lowerneck -2.14194 4.9718 -1.05275
upperneck -29.7827 6.95885 -0.0537862
head -9.01951 3.30785 -0.295733
rclavicle 1.43125e-014 3.81667e-014
rhumerus 31.7568 17.7831 -47.7855
rradius 40.2036
rwrist -10.2361
rhand -0.543584 -3.51221
rfingers 7.12502
rthumb 25.0696 -31.8867
lclavicle 1.43125e-014 3.81667e-014
lhumerus 60.1189 -25.0528 47.544
lradius 27.3417
lwrist 22.1607
lhand -40.1359 -54.1042
lfingers 7.12502
lthumb -13.0988 -24.5356
rfemur -69.9032 -36.5332 -2.67296
rtibia 75.6907
rfoot -11.722 -1.5874
rtoes -27.6251
lfemur -100.308 33.4324 -23.4661
ltibia 73.8133
lfoot -0.798766 0.133921
ltoes -22.1536
